<?xml version="1.0" encoding="utf-8"?>
<!-- Generator: Adobe Illustrator 16.0.0, SVG Export Plug-In . SVG Version: 6.00 Build 0)  -->
<!DOCTYPE svg PUBLIC "-//W3C//DTD SVG 1.1//EN" "http://www.w3.org/Graphics/SVG/1.1/DTD/svg11.dtd">
<svg version="1.1" id="Layer_1" xmlns="http://www.w3.org/2000/svg" xmlns:xlink="http://www.w3.org/1999/xlink" x="0px" y="0px"
	 width="70px" height="70px" viewBox="0 0 100 100" enable-background="new 0 0 100 100" xml:space="preserve">
<path opacity="0.2" fill="#FFFFFF" d="M50.58,37.67l15.504-15.505c0.195-0.195,0.195-0.512,0-0.707
	c-0.194-0.195-0.512-0.195-0.707,0L50.226,36.609L34.623,21.005c-0.195-0.195-0.514-0.195-0.707,0
	c-0.1,0.098-0.146,0.226-0.146,0.354s0.049,0.256,0.146,0.354L49.874,37.67C50.067,37.866,50.384,37.866,50.58,37.67z"/>
<path opacity="0.5" fill="#FFFFFF" d="M33.916,41.668c-0.1,0.098-0.146,0.226-0.146,0.354s0.049,0.256,0.146,0.354l15.957,15.955
	c0.195,0.194,0.512,0.194,0.707,0l15.504-15.503c0.195-0.195,0.195-0.512,0-0.707c-0.194-0.195-0.512-0.195-0.707,0L50.227,57.27
	L34.623,41.668C34.427,41.473,34.109,41.473,33.916,41.668z"/>
<path fill="#FFFFFF" d="M33.77,62.684c0,0.127,0.049,0.256,0.146,0.354l15.958,15.959c0.195,0.192,0.512,0.192,0.707,0
	l15.503-15.509c0.195-0.194,0.195-0.512,0-0.707c-0.194-0.194-0.512-0.194-0.707,0L50.226,77.934L34.623,62.329
	c-0.195-0.195-0.514-0.195-0.707,0C33.816,62.427,33.77,62.555,33.77,62.684z"/>
</svg>
