<?xml version="1.0" encoding="utf-8"?>
<!-- Generator: Adobe Illustrator 16.0.0, SVG Export Plug-In . SVG Version: 6.00 Build 0)  -->
<!DOCTYPE svg PUBLIC "-//W3C//DTD SVG 1.1//EN" "http://www.w3.org/Graphics/SVG/1.1/DTD/svg11.dtd">
<svg version="1.1" id="Layer_1" xmlns="http://www.w3.org/2000/svg" xmlns:xlink="http://www.w3.org/1999/xlink" x="0px" y="0px"
	 width="400px" height="132px" viewBox="0 0 400 132" enable-background="new 0 0 400 132" xml:space="preserve">
<path fill="none" stroke="#FFFFFF" stroke-width="4" stroke-miterlimit="10" d="M98.616,6.858H45.673
	c-1.235,0-2.236,1.002-2.236,2.237v5.613L6.824,25.93c-1.181,0.362-1.845,1.613-1.483,2.794l21.633,70.581
	c0.361,1.181,1.612,1.845,2.794,1.482l50.618-15.513c0.105-0.033,0.207-0.075,0.304-0.121h17.927c1.235,0,2.237-1.001,2.237-2.237
	V9.095C100.853,7.86,99.852,6.858,98.616,6.858z"/>
<path fill="none" stroke="#FFFFFF" stroke-width="4" stroke-miterlimit="10" d="M100.853,82.916c0,1.235-1.001,2.237-2.237,2.237
	H45.673c-1.235,0-2.236-1.001-2.236-2.237V9.095c0-1.235,1.001-2.237,2.236-2.237h52.943c1.235,0,2.237,1.002,2.237,2.237V82.916z"
	/>
<path fill="#FFFFFF" d="M76.213,51.138C87.587,33.015,68.25,25.2,68.25,25.2c2.559,3.018,1.452,9.241-6.147,16.653
	c-14.487,16.792,9.842,23.493,9.842,23.493C69.404,57.852,74.266,54.219,76.213,51.138z M81.903,40.076
	c1,1.9-1.054,9.861-4.057,13.484c-5.576,6.741-3.81,10.156-3.378,11.743c0.053-0.152,0.726-0.896,5.924-4.536
	C91.496,53.019,81.903,40.076,81.903,40.076z"/>
<path fill="#FFFFFF" d="M177.729,39.247"/>
<path fill="#FFFFFF" d="M163.684,21.837v5.917V65.6c0,2.031-0.073,4.12-0.217,6.264c-0.146,2.147-0.624,4.148-1.436,6.003
	c-1.276,2.958-3.336,5.25-6.177,6.874c-2.843,1.625-5.859,2.437-9.049,2.437c-2.436,0-4.684-0.405-6.743-1.218
	c-2.059-0.812-3.858-1.928-5.395-3.35c-1.537-1.421-2.77-3.146-3.697-5.176c-0.929-2.03-1.451-4.264-1.566-6.7h6.352
	c0.174,3.132,1.29,5.67,3.35,7.613c2.058,1.945,4.654,2.915,7.787,2.915c2.377,0,4.263-0.449,5.655-1.349
	c1.392-0.899,2.436-2.074,3.132-3.523c0.696-1.449,1.145-3.089,1.349-4.916c0.203-1.827,0.305-3.698,0.305-5.612V27.753H142.02
	v-5.917h15.312H163.684z"/>
<path fill="#FFFFFF" d="M208.049,87.177c-4.409,0-8.614-0.841-12.616-2.523c-4.001-1.682-7.526-3.972-10.571-6.874
	c-3.045-2.899-5.48-6.321-7.308-10.266c-1.827-3.944-2.741-8.149-2.741-12.616c0-4.582,0.87-8.888,2.61-12.92
	c1.74-4.031,4.118-7.526,7.135-10.484c3.015-2.958,6.539-5.292,10.571-7.003c4.03-1.71,8.337-2.567,12.92-2.567
	c4.524,0,8.802,0.841,12.832,2.523c4.032,1.683,7.57,3.988,10.615,6.917c3.045,2.93,5.467,6.381,7.264,10.354
	c1.799,3.974,2.698,8.252,2.698,12.833c0,4.524-0.899,8.774-2.698,12.746c-1.797,3.973-4.219,7.439-7.264,10.397
	c-3.045,2.958-6.583,5.279-10.615,6.96C216.851,86.336,212.573,87.177,208.049,87.177z M208.049,27.58
	c-3.771,0-7.295,0.726-10.571,2.175c-3.278,1.45-6.134,3.408-8.57,5.873c-2.436,2.466-4.35,5.366-5.743,8.701
	c-1.391,3.336-2.087,6.859-2.087,10.571c0,3.654,0.725,7.091,2.175,10.31c1.45,3.219,3.406,6.033,5.873,8.439
	c2.464,2.408,5.32,4.307,8.569,5.699c3.248,1.392,6.7,2.088,10.354,2.088s7.119-0.696,10.396-2.088
	c3.276-1.392,6.147-3.307,8.614-5.743c2.465-2.435,4.422-5.292,5.872-8.569c1.449-3.276,2.176-6.771,2.176-10.484
	c0-3.654-0.711-7.119-2.133-10.397c-1.421-3.276-3.363-6.147-5.828-8.613c-2.467-2.465-5.338-4.408-8.614-5.829
	C215.255,28.29,211.76,27.58,208.049,27.58z"/>
<path fill="#FFFFFF" d="M296.732,87.177h-8.091l-25.405-33.062l24.97-32.191h7.919l-25.231,32.104L296.732,87.177z"/>
<path fill="#FFFFFF" d="M304.215,21.75h35.759v5.917h-29.146v23.491h16.967v5.917h-16.967v24.1h29.146v5.83h-35.759V21.75z"/>
<path fill="#FFFFFF" d="M391.392,43.153c0,2.784-0.493,5.351-1.479,7.7c-0.987,2.349-2.35,4.394-4.088,6.134
	c-1.74,1.74-3.801,3.132-6.178,4.176c-2.38,1.043-4.931,1.653-7.656,1.827l18.358,24.274h-8.092l-22.1-29.494
	c0.985,0,2.088,0.015,3.306,0.043c1.219,0.029,2.45,0.015,3.698-0.043c1.246-0.058,2.465-0.16,3.653-0.305
	c1.188-0.144,2.276-0.361,3.264-0.652c3.247-0.986,5.857-2.697,7.83-5.133c1.972-2.437,2.959-5.336,2.959-8.7
	c0-2.493-0.641-4.901-1.915-7.221c-1.277-2.32-3.017-4.089-5.22-5.308c-2.031-1.101-4.076-1.783-6.133-2.044
	c-2.062-0.261-4.25-0.392-6.57-0.392h-11.311h-6.612v-6.003h16.618c2.493,0,5.206,0.161,8.134,0.479
	c2.93,0.32,5.555,1.031,7.874,2.132c3.713,1.74,6.584,4.25,8.615,7.526C390.376,35.425,391.392,39.094,391.392,43.153z"/>
<rect x="252.677" y="21.75" fill="#FFFFFF" width="6.794" height="65.514"/>
<g>
	<path fill="#FFFFFF" d="M281.569,105.2h4.77c1.28,0,2.289,0.368,2.93,0.992c0.464,0.479,0.72,1.072,0.72,1.793v0.031
		c0,1.457-0.896,2.209-1.776,2.594c1.328,0.399,2.4,1.168,2.4,2.705v0.031c0,1.921-1.616,3.058-4.065,3.058h-4.978V105.2z
		 M288.708,108.161c0-1.104-0.881-1.825-2.481-1.825h-3.409v3.857h3.313c1.521,0,2.577-0.688,2.577-2V108.161z M286.354,111.314
		h-3.537v3.953h3.762c1.696,0,2.753-0.752,2.753-2.001v-0.031C289.332,112.019,288.308,111.314,286.354,111.314z"/>
	<path fill="#FFFFFF" d="M292.631,110.834v-0.032c0-3.089,2.32-5.794,5.729-5.794c3.41,0,5.698,2.673,5.698,5.762v0.032
		c0,3.09-2.32,5.795-5.729,5.795C294.919,116.597,292.631,113.923,292.631,110.834z M302.746,110.834v-0.032
		c0-2.545-1.856-4.626-4.417-4.626c-2.562,0-4.386,2.049-4.386,4.594v0.032c0,2.545,1.856,4.626,4.417,4.626
		C300.922,115.428,302.746,113.379,302.746,110.834z"/>
	<path fill="#FFFFFF" d="M306.845,105.2h1.265v11.204h-1.265V105.2z"/>
	<path fill="#FFFFFF" d="M311.392,105.2h1.265v10.035h6.306v1.169h-7.57V105.2z"/>
	<path fill="#FFFFFF" d="M321.301,105.2h8.099v1.152h-6.834v3.825h6.114v1.152h-6.114v3.922h6.914v1.152h-8.179V105.2z"/>
	<path fill="#FFFFFF" d="M332.026,105.2h4.817c1.377,0,2.481,0.416,3.186,1.12c0.544,0.544,0.864,1.328,0.864,2.209v0.032
		c0,1.856-1.28,2.944-3.041,3.265l3.441,4.578h-1.553l-3.249-4.354h-3.201v4.354h-1.265V105.2z M336.732,110.914
		c1.681,0,2.881-0.864,2.881-2.305v-0.032c0-1.377-1.057-2.209-2.865-2.209h-3.457v4.546H336.732z"/>
	<path fill="#FFFFFF" d="M343.601,105.2h4.193c2.529,0,4.193,1.344,4.193,3.553v0.032c0,2.417-2.017,3.666-4.401,3.666h-2.721v3.953
		h-1.265V105.2z M347.634,111.298c1.856,0,3.073-0.992,3.073-2.465v-0.032c0-1.601-1.2-2.433-3.009-2.433h-2.833v4.93H347.634z"/>
	<path fill="#FFFFFF" d="M354.294,105.2h1.265v10.035h6.306v1.169h-7.57V105.2z"/>
	<path fill="#FFFFFF" d="M368.348,105.12h1.185l5.105,11.284h-1.36l-1.312-2.961h-6.099l-1.328,2.961h-1.297L368.348,105.12z
		 M371.469,112.291l-2.545-5.698l-2.562,5.698H371.469z"/>
	<path fill="#FFFFFF" d="M378.369,106.368h-3.762V105.2h8.804v1.168h-3.762v10.036h-1.28V106.368z"/>
	<path fill="#FFFFFF" d="M385.781,105.2h8.099v1.152h-6.834v3.825h6.114v1.152h-6.114v3.922h6.914v1.152h-8.179V105.2z"/>
</g>
</svg>
