<?xml version="1.0" encoding="utf-8"?>
<!-- Generator: Adobe Illustrator 16.0.0, SVG Export Plug-In . SVG Version: 6.00 Build 0)  -->
<!DOCTYPE svg PUBLIC "-//W3C//DTD SVG 1.1//EN" "http://www.w3.org/Graphics/SVG/1.1/DTD/svg11.dtd">
<svg version="1.1" id="Layer_1" xmlns="http://www.w3.org/2000/svg" xmlns:xlink="http://www.w3.org/1999/xlink" x="0px" y="0px"
	 width="1124.918px" height="307.484px" viewBox="0 0 1124.918 307.484" enable-background="new 0 0 1124.918 307.484"
	 xml:space="preserve">
<path fill="none" stroke="#FFFFFF" stroke-width="7" stroke-miterlimit="10" d="M283.829,22.366H137.076
	c-3.424,0-6.201,2.776-6.201,6.201v15.56L29.386,75.233c-3.274,1.004-5.116,4.472-4.112,7.746l59.964,195.646
	c1.003,3.272,4.471,5.115,7.746,4.111l140.311-43.005c0.294-0.09,0.572-0.207,0.843-0.335h49.691c3.424,0,6.2-2.776,6.2-6.201
	V28.567C290.029,25.143,287.253,22.366,283.829,22.366z"/>
<path fill="none" stroke="#FFFFFF" stroke-width="7" stroke-miterlimit="10" d="M290.029,233.194c0,3.426-2.776,6.201-6.2,6.201
	H137.076c-3.424,0-6.201-2.775-6.201-6.201V28.567c0-3.424,2.776-6.201,6.201-6.201h146.753c3.424,0,6.2,2.776,6.2,6.201V233.194z"
	/>
<path fill="#E1E1E1" d="M221.728,145.107c31.529-50.234-22.071-71.897-22.071-71.897c7.092,8.365,4.023,25.616-17.041,46.161
	c-40.157,46.546,27.283,65.12,27.283,65.12C202.854,163.72,216.33,153.648,221.728,145.107z M237.502,114.443
	c2.773,5.269-2.922,27.335-11.245,37.378c-15.457,18.686-10.562,28.152-9.363,32.551c0.146-0.422,2.013-2.482,16.422-12.574
	C264.092,150.32,237.502,114.443,237.502,114.443z"/>
<g>
	<path fill="#FFFFFF" d="M155.505,35.732v1.097v7.015c0,0.376-0.013,0.763-0.04,1.161c-0.027,0.397-0.116,0.769-0.266,1.112
		c-0.237,0.548-0.618,0.973-1.145,1.274c-0.527,0.301-1.086,0.452-1.677,0.452c-0.452,0-0.869-0.075-1.25-0.226
		c-0.382-0.15-0.715-0.357-1-0.621c-0.285-0.263-0.514-0.583-0.686-0.959c-0.172-0.376-0.269-0.79-0.291-1.242h1.177
		c0.032,0.581,0.239,1.051,0.621,1.411c0.381,0.36,0.863,0.54,1.443,0.54c0.44,0,0.79-0.083,1.048-0.25
		c0.258-0.167,0.452-0.384,0.581-0.653s0.212-0.573,0.25-0.911c0.038-0.339,0.057-0.686,0.057-1.04v-7.063h-2.838v-1.097h2.838
		H155.505z"/>
</g>
<path d="M503.125,112.146"/>
<path fill="#FFFFFF" d="M145.478,65.255l8.061-8.005l8.143,8.005c0,0,3.656,3.961,0,8.115c0,0-2.963,3.213-7.035-0.305
	c0,0,0.942,4.681,2.216,5.955h-6.314c0,0,1.246-0.914,1.994-6.011c0,0-3.407,3.989-7.063,0.166
	C145.478,73.176,141.821,68.523,145.478,65.255z"/>
<path fill="#FFFFFF" d="M274.407,197.516l-8.061,8.005l-8.143-8.005c0,0-3.656-3.961,0-8.115c0,0,2.963-3.213,7.035,0.305
	c0,0-0.942-4.681-2.216-5.955h6.314c0,0-1.246,0.914-1.994,6.011c0,0,3.407-3.989,7.063-0.166
	C274.407,189.595,278.063,194.247,274.407,197.516z"/>
<g>
	<path fill="#FFFFFF" d="M265.104,225.681v-1.097v-7.015c0-0.377,0.014-0.764,0.041-1.161c0.026-0.397,0.115-0.769,0.266-1.112
		c0.236-0.549,0.618-0.973,1.145-1.273c0.527-0.302,1.086-0.452,1.678-0.452c0.451,0,0.868,0.075,1.25,0.226
		c0.381,0.15,0.715,0.357,0.999,0.621c0.285,0.264,0.514,0.583,0.686,0.959c0.173,0.377,0.269,0.791,0.29,1.242h-1.177
		c-0.032-0.58-0.239-1.051-0.621-1.411s-0.862-0.54-1.443-0.54c-0.44,0-0.79,0.083-1.048,0.25c-0.258,0.166-0.451,0.385-0.58,0.652
		c-0.129,0.27-0.213,0.573-0.25,0.912c-0.038,0.338-0.057,0.686-0.057,1.039v7.063h2.838v1.097h-2.838H265.104z"/>
</g>
<path fill="#FFFFFF" d="M464.193,63.887v16.4v104.909c0,5.629-0.204,11.417-0.604,17.364c-0.402,5.95-1.729,11.497-3.979,16.641
	c-3.539,8.2-9.248,14.554-17.123,19.053c-7.88,4.503-16.242,6.753-25.082,6.753c-6.753,0-12.985-1.123-18.69-3.376
	c-5.709-2.25-10.694-5.344-14.953-9.285c-4.262-3.938-7.68-8.72-10.25-14.35c-2.573-5.626-4.021-11.817-4.341-18.57h17.605
	c0.482,8.682,3.576,15.718,9.285,21.103c5.705,5.389,12.902,8.079,21.585,8.079c6.591,0,11.817-1.244,15.676-3.738
	c3.858-2.491,6.753-5.747,8.683-9.768c1.929-4.017,3.173-8.562,3.738-13.626c0.561-5.064,0.844-10.25,0.844-15.556V80.287h-42.446
	v-16.4h42.446H464.193z"/>
<path fill="#FFFFFF" d="M587.17,245.006c-12.22,0-23.876-2.329-34.97-6.994c-11.094-4.661-20.861-11.011-29.302-19.053
	c-8.441-8.037-15.193-17.522-20.259-28.458c-5.064-10.932-7.597-22.587-7.597-34.97c0-12.699,2.412-24.637,7.235-35.814
	c4.823-11.173,11.414-20.861,19.776-29.061c8.357-8.2,18.125-14.67,29.302-19.414c11.173-4.741,23.111-7.115,35.813-7.115
	c12.541,0,24.396,2.333,35.573,6.994c11.173,4.665,20.981,11.056,29.423,19.173c8.44,8.121,15.152,17.688,20.138,28.699
	c4.981,11.015,7.476,22.874,7.476,35.573c0,12.541-2.494,24.321-7.476,35.332c-4.985,11.015-11.697,20.62-20.138,28.82
	c-8.441,8.199-18.25,14.632-29.423,19.293C611.566,242.677,599.711,245.006,587.17,245.006z M587.17,79.804
	c-10.453,0-20.221,2.012-29.302,6.029c-9.085,4.021-17.003,9.447-23.755,16.279c-6.753,6.836-12.059,14.874-15.918,24.117
	c-3.858,9.248-5.788,19.015-5.788,29.302c0,10.129,2.009,19.655,6.029,28.579c4.018,8.923,9.443,16.724,16.279,23.394
	c6.832,6.674,14.749,11.938,23.755,15.797c9.003,3.858,18.57,5.788,28.699,5.788c10.13,0,19.735-1.93,28.82-5.788
	c9.081-3.859,17.04-9.165,23.876-15.918c6.832-6.752,12.258-14.669,16.278-23.755c4.018-9.082,6.029-18.77,6.029-29.061
	c0-10.129-1.971-19.734-5.908-28.82c-3.941-9.082-9.326-17.04-16.158-23.876c-6.836-6.832-14.795-12.217-23.876-16.158
	C607.146,81.775,597.458,79.804,587.17,79.804z"/>
<path fill="#FFFFFF" d="M832.999,245.006H810.57l-70.422-91.645l69.216-89.233h21.946l-69.939,88.992L832.999,245.006z"/>
<path fill="#FFFFFF" d="M853.738,63.646h99.121v16.399h-80.792v65.116h47.028v16.4h-47.028v66.804h80.792v16.158h-99.121V63.646z"/>
<path fill="#FFFFFF" d="M1095.389,122.974c0,7.717-1.368,14.832-4.101,21.344c-2.735,6.511-6.512,12.179-11.335,17.002
	s-10.532,8.682-17.123,11.576c-6.595,2.894-13.667,4.582-21.223,5.064l50.887,67.287h-22.429l-61.257-81.757
	c2.731,0,5.788,0.042,9.164,0.121c3.376,0.083,6.79,0.042,10.25-0.121c3.455-0.158,6.832-0.441,10.129-0.844
	c3.293-0.399,6.308-1.002,9.044-1.809c9.002-2.732,16.237-7.476,21.705-14.229c5.464-6.753,8.2-14.791,8.2-24.117
	c0-6.911-1.771-13.584-5.306-20.017c-3.539-6.429-8.362-11.335-14.471-14.711c-5.63-3.052-11.297-4.944-17.002-5.667
	c-5.709-0.724-11.78-1.085-18.209-1.085h-31.352h-18.329V64.369h46.063c6.911,0,14.429,0.445,22.549,1.327
	c8.117,0.885,15.394,2.856,21.826,5.909c10.288,4.823,18.246,11.78,23.876,20.861
	C1092.573,101.551,1095.389,111.722,1095.389,122.974z"/>
<rect x="710.875" y="63.646" fill="#E1E1E1" width="18.834" height="181.601"/>
<g>
	<path fill="#FFFFFF" d="M57.717,85.832l0.301,1.055l1.923,6.745c0.104,0.362,0.197,0.738,0.28,1.128s0.099,0.771,0.048,1.143
		c-0.076,0.593-0.327,1.105-0.751,1.539c-0.424,0.435-0.921,0.732-1.489,0.894c-0.434,0.124-0.855,0.166-1.264,0.126
		c-0.408-0.039-0.785-0.147-1.132-0.323c-0.346-0.174-0.653-0.419-0.922-0.734c-0.269-0.314-0.476-0.687-0.62-1.114l1.133-0.323
		c0.189,0.55,0.518,0.945,0.984,1.188c0.465,0.242,0.977,0.282,1.535,0.123c0.424-0.121,0.737-0.296,0.939-0.527
		c0.203-0.231,0.329-0.493,0.38-0.787c0.05-0.294,0.047-0.609-0.01-0.944c-0.057-0.337-0.134-0.675-0.23-1.017l-1.937-6.792
		l-2.729,0.778l-0.301-1.055l2.729-0.778L57.717,85.832z"/>
</g>
<path fill="#FFFFFF" d="M56.167,116.973l5.557-9.908l10.025,5.466c0,0,4.602,2.807,2.225,7.804c0,0-1.968,3.902-6.849,1.635
	c0,0,2.189,4.244,3.764,5.12l-6.072,1.731c0,0,0.947-1.221,0.27-6.327c0,0-2.183,4.771-6.748,2.096
	C58.338,124.59,53.547,121.118,56.167,116.973z"/>
</svg>
