<?xml version="1.0" encoding="utf-8"?>
<!-- Generator: Adobe Illustrator 16.0.0, SVG Export Plug-In . SVG Version: 6.00 Build 0)  -->
<!DOCTYPE svg PUBLIC "-//W3C//DTD SVG 1.1//EN" "http://www.w3.org/Graphics/SVG/1.1/DTD/svg11.dtd">
<svg version="1.1" id="Layer_1" xmlns="http://www.w3.org/2000/svg" xmlns:xlink="http://www.w3.org/1999/xlink" x="0px" y="0px"
	 width="1500px" height="600px" viewBox="0 0 1500 600" enable-background="new 0 0 1500 600" xml:space="preserve">
<g>
	<path fill="#FFFFFF" d="M242.886,271.094h-44.71v7.556h36.839v31.644c-7.14,6.019-18.264,11.288-30.493,12.383l-0.156,7.27
		c15.9-1.213,29.493-8.322,38.521-16.348V271.094z"/>
	<path fill="#FFFFFF" d="M198.176,223.549c16.688,0,26.763,5.668,35.422,13.224l5.353-6.139
		c-11.02-9.131-22.355-14.483-40.302-14.483c-12.819,0-23.917,4.134-32.689,10.941l5.673,5.331
		C178.914,226.856,187.958,223.549,198.176,223.549z"/>
	<path fill="#FFFFFF" d="M152.679,273.14v-0.315c0-11.479,3.49-22.224,9.605-30.734l-5.828-5.476
		c-7.87,10.138-12.278,23.073-12.278,36.525v0.315c0,28.341,17.226,52.209,46.746,56.111l0.158-7.361
		C166.952,318.37,152.679,298.662,152.679,273.14z"/>
</g>
<path fill="#FFFFFF" d="M264.133,284.622v-63.703h8.099v62.923c0,25.7,13.862,40.496,36.913,40.496
	c22.117,0,36.29-13.395,36.29-39.717v-63.703h8.099v62.768c0,31.306-18.223,47.972-44.701,47.972
	C282.667,331.659,264.133,315.149,264.133,284.622z"/>
<path fill="#FFFFFF" d="M375.651,314.059l5.296-6.074c11.993,11.06,23.051,16.199,39.094,16.199c16.354,0,27.567-9.19,27.567-21.649
	v-0.312c0-11.526-6.074-18.224-30.838-23.208c-26.167-5.295-36.757-14.173-36.757-30.683v-0.311
	c0-16.198,14.796-28.658,35.043-28.658c15.887,0,26.322,4.361,37.381,13.239l-5.14,6.385c-10.279-8.877-20.559-12.304-32.552-12.304
	c-16.042,0-26.634,9.189-26.634,20.559v0.312c0,11.525,5.918,18.534,31.773,23.83c25.231,5.139,35.823,14.173,35.823,30.06v0.312
	c0,17.601-15.108,29.749-36.134,29.749C402.13,331.504,388.735,325.74,375.651,314.059z"/>
<path fill="#FFFFFF" d="M508.665,228.396h-38.003v-7.476h84.106v7.476h-38.003v101.551h-8.099V228.396z"/>
<path fill="#FFFFFF" d="M605.231,220.141h7.788l50.775,109.806h-8.878l-13.862-30.527h-64.326l-13.862,30.527h-8.41L605.231,220.141
	z M637.627,292.099l-28.658-63.08l-28.814,63.08H637.627z"/>
<path fill="#FFFFFF" d="M773.915,275.744v-0.312c0-29.748,21.961-56.382,54.98-56.382c33.019,0,54.668,26.322,54.668,56.071v0.311
	c0,29.75-21.96,56.382-54.979,56.382S773.915,305.493,773.915,275.744z M875.153,275.744v-0.312
	c0-26.945-19.624-49.062-46.569-49.062s-46.258,21.806-46.258,48.75v0.311c0,26.946,19.624,49.062,46.569,49.062
	C855.84,324.494,875.153,302.689,875.153,275.744z"/>
<path fill="#FFFFFF" d="M937.144,220.919h7.632l43.767,64.481l43.767-64.481h7.632v109.027h-8.1v-94.698l-43.144,62.768h-0.622
	l-43.144-62.768v94.698h-7.788V220.919z"/>
<path fill="#FFFFFF" d="M1070.78,220.919h77.563v7.476h-69.465v42.832h62.457v7.477h-62.457v43.766h70.244v7.477h-78.343V220.919z"
	/>
<path fill="#FFFFFF" d="M1257.371,275.744v-0.312c0-29.748,21.962-56.382,54.98-56.382c33.02,0,54.669,26.322,54.669,56.071v0.311
	c0,29.75-21.96,56.382-54.98,56.382C1279.021,331.814,1257.371,305.493,1257.371,275.744z M1358.61,275.744v-0.312
	c0-26.945-19.624-49.062-46.57-49.062c-26.944,0-46.257,21.806-46.257,48.75v0.311c0,26.946,19.624,49.062,46.568,49.062
	C1339.297,324.494,1358.61,302.689,1358.61,275.744z"/>
<g>
	<path fill="#FFFFFF" d="M584.505,386.225h2.61l9.899,28.034l9.225-28.124h1.8l9.225,28.124l9.899-28.034h2.43l-11.429,31.724h-1.89
		l-9.225-27.358l-9.225,27.358h-1.89L584.505,386.225z"/>
	<path fill="#FFFFFF" d="M636.074,386.225h22.409v2.16h-20.069v12.375h18.044v2.159h-18.044v12.645h20.294v2.16h-22.634V386.225z"/>
	<path fill="#FFFFFF" d="M665.774,386.225h13.004c3.555,0,6.435,1.035,8.19,2.79c1.305,1.305,2.025,2.97,2.025,4.95v0.09
		c0,4.274-2.79,6.435-5.355,7.47c3.78,0.99,7.11,3.149,7.11,7.515v0.09c0,5.265-4.5,8.595-11.294,8.595h-13.68V386.225z
		 M686.609,394.189c0-3.465-2.835-5.805-7.875-5.805h-10.62v12.375h10.395c4.725,0,8.1-2.295,8.1-6.48V394.189z M678.779,402.919
		h-10.665v12.645h11.43c5.4,0,8.82-2.475,8.82-6.435v-0.09C688.364,405.169,684.989,402.919,678.779,402.919z"/>
	<path fill="#FFFFFF" d="M710.863,386.225h10.485c9.899,0,16.739,6.795,16.739,15.659v0.091c0,8.864-6.84,15.749-16.739,15.749
		h-10.485V386.225z M713.203,388.385v27.179h8.145c8.774,0,14.309-5.984,14.309-13.499v-0.09c0-7.47-5.535-13.59-14.309-13.59
		H713.203z"/>
	<path fill="#FFFFFF" d="M745.603,386.225h22.409v2.16h-20.069v12.375h18.044v2.159h-18.044v12.645h20.294v2.16h-22.634V386.225z"/>
	<path fill="#FFFFFF" d="M773.277,413.134l1.531-1.755c3.465,3.195,6.659,4.68,11.294,4.68c4.725,0,7.964-2.655,7.964-6.255v-0.09
		c0-3.33-1.754-5.265-8.909-6.705c-7.56-1.529-10.619-4.095-10.619-8.864v-0.09c0-4.68,4.274-8.279,10.124-8.279
		c4.59,0,7.605,1.26,10.8,3.824l-1.485,1.845c-2.969-2.564-5.939-3.555-9.404-3.555c-4.635,0-7.694,2.655-7.694,5.94v0.09
		c0,3.329,1.71,5.354,9.18,6.885c7.29,1.484,10.35,4.095,10.35,8.685v0.09c0,5.085-4.365,8.595-10.44,8.595
		C780.928,418.174,777.058,416.509,773.277,413.134z"/>
	<path fill="#FFFFFF" d="M803.968,386.225h2.34v31.499h-2.34V386.225z"/>
	<path fill="#FFFFFF" d="M814.138,402.064v-0.09c0-8.505,6.164-16.29,15.569-16.29c5.13,0,8.369,1.53,11.52,4.141l-1.53,1.755
		c-2.475-2.16-5.354-3.78-10.124-3.78c-7.65,0-13.005,6.479-13.005,14.084v0.091c0,8.145,5.085,14.219,13.499,14.219
		c4.005,0,7.74-1.665,10.035-3.6v-9.045h-10.529v-2.159h12.779v12.149c-2.835,2.52-7.245,4.725-12.375,4.725
		C820.032,418.264,814.138,410.929,814.138,402.064z"/>
	<path fill="#FFFFFF" d="M850.362,386.225h2.205l21.734,27.404v-27.404h2.25v31.499h-1.755l-22.185-27.989v27.989h-2.25V386.225z"/>
	<path fill="#FFFFFF" d="M885.462,386.225h22.409v2.16h-20.069v12.375h18.045v2.159h-18.045v12.645h20.294v2.16h-22.634V386.225z"/>
	<path fill="#FFFFFF" d="M915.162,386.225h13.229c3.87,0,6.975,1.215,8.864,3.105c1.485,1.484,2.386,3.6,2.386,5.85v0.09
		c0,5.265-3.915,8.279-9.225,9l10.395,13.454h-2.97l-10.035-13.05h-10.305v13.05h-2.34V386.225z M928.122,402.56
		c5.265,0,9.18-2.655,9.18-7.2v-0.09c0-4.229-3.33-6.885-9.045-6.885h-10.755v14.175H928.122z"/>
</g>
<polygon fill="#FFFFFF" points="763.477,220.919 754.91,220.919 721.405,299.383 725.251,308.416 "/>
<polygon fill="#FFFFFF" points="712.079,321.224 669.403,220.919 660.37,220.919 708.341,330.725 715.505,330.725 715.849,329.938 
	712.109,321.154 "/>
<rect x="1195.058" y="322.47" fill="#FFFFFF" width="50.633" height="7.477"/>
<polygon fill="#FFFFFF" points="1181.676,322.47 1181.676,322.233 1181.676,220.919 1173.577,220.919 1173.577,329.946 
	1181.676,329.946 "/>
</svg>
