<?xml version="1.0" encoding="utf-8"?>
<!-- Generator: Adobe Illustrator 16.0.0, SVG Export Plug-In . SVG Version: 6.00 Build 0)  -->
<!DOCTYPE svg PUBLIC "-//W3C//DTD SVG 1.1//EN" "http://www.w3.org/Graphics/SVG/1.1/DTD/svg11.dtd">
<svg version="1.1" id="Layer_1" xmlns="http://www.w3.org/2000/svg" xmlns:xlink="http://www.w3.org/1999/xlink" x="0px" y="0px"
	 width="80px" height="70px" viewBox="10.084 15.084 80 70" enable-background="new 10.084 15.084 80 70" xml:space="preserve">
<path fill="#FFFFFF" d="M44.407,67.413L56.289,43.63l2.671,2.67l11.614-8.343l-1.262-1.758l-10.121,7.269L42.113,26.392
	l7.196-10.048l-1.761-1.26l-8.265,11.541l2.677,2.678L18.169,41.177l-0.032,0.632c-0.543,10.627-1.601,22.459-7.311,28.354
	l-0.743,0.765l1.604,1.604l0,0l1.531,1.531l0,0l1.449,1.447l0.765-0.769c5.664-5.684,17.105-6.72,28.339-7.296L44.407,67.413z
	 M15.27,72.015l14.878-14.876c1.184,0.507,2.609,0.281,3.576-0.686c1.27-1.268,1.267-3.324,0-4.594c-1.269-1.268-3.324-1.27-4.593,0
	c-1.03,1.03-1.21,2.573-0.566,3.8L13.223,71.001l-0.125-0.122c5.492-6.482,6.617-17.91,7.169-28.328l23.307-11.636l11.101,11.099
	L43.033,65.316C32.381,65.879,21.626,66.947,15.27,72.015z"/>
<rect x="20.882" y="82.919" fill="#FFFFFF" width="69.298" height="2.165"/>
</svg>
