<?xml version="1.0" encoding="utf-8"?>
<!-- Generator: Adobe Illustrator 16.0.0, SVG Export Plug-In . SVG Version: 6.00 Build 0)  -->
<!DOCTYPE svg PUBLIC "-//W3C//DTD SVG 1.1//EN" "http://www.w3.org/Graphics/SVG/1.1/DTD/svg11.dtd">
<svg version="1.1" id="Layer_1" xmlns="http://www.w3.org/2000/svg" xmlns:xlink="http://www.w3.org/1999/xlink" x="0px" y="0px"
	 width="80px" height="70px" viewBox="10.084 15.084 80 70" enable-background="new 10.084 15.084 80 70" xml:space="preserve">
<path fill="#FFFFFF" d="M-98.748,19.003L-86.865-4.78l2.671,2.67l11.614-8.343l-1.262-1.758l-10.121,7.269l-17.079-17.075
	l7.196-10.048l-1.761-1.26l-8.265,11.541l2.677,2.678l-23.791,11.875l-0.032,0.632c-0.543,10.627-1.601,22.459-7.311,28.354
	l-0.743,0.765l1.604,1.604l0,0l1.531,1.531l0,0l1.449,1.447l0.765-0.769c5.664-5.684,17.105-6.72,28.339-7.296L-98.748,19.003z
	 M-127.885,23.604l14.878-14.876c1.184,0.507,2.609,0.281,3.576-0.686c1.27-1.268,1.267-3.324,0-4.594
	c-1.269-1.268-3.324-1.27-4.593,0c-1.03,1.03-1.21,2.573-0.566,3.8l-15.341,15.342l-0.125-0.122
	c5.492-6.482,6.617-17.91,7.169-28.328l23.307-11.636l11.101,11.099l-11.643,23.302C-110.773,17.469-121.528,18.537-127.885,23.604z
	"/>
<rect x="-122.272" y="34.509" fill="#FFFFFF" width="69.298" height="2.165"/>
<path fill="#FFFFFF" d="M58.542,70.629v6.512h-2.604v1.954h-0.587h-1.691l-0.716,1.498c-0.458,1.041-1.499,1.692-2.671,1.692
	c-1.171,0-2.214-0.651-2.669-1.692l-0.717-1.498h-1.693h-0.976v-1.954h-2.41h-0.195v-6.512H58.542 M59.649,68.025H40.896
	c-1.107,0.65-1.889,1.105-1.889,2.278v7.032c0,1.238,0.847,2.409,2.018,2.409h0.717c0,1.303,0.716,1.953,1.627,1.953h1.758
	c0.847,1.955,2.801,3.321,5.079,3.321c2.278,0,4.168-1.366,5.08-3.321h1.822c0.912,0,1.628-0.65,1.628-1.953h0.716
	c1.238,0,1.629-1.171,1.629-2.409v-7.032C61.147,69.131,60.691,68.025,59.649,68.025L59.649,68.025z"/>
<path fill="#FFFFFF" d="M50.272,17.886c5.403,0,10.679,2.344,14.455,6.316c8.205,8.595,8.205,20.642,0,28.846
	c-3.907,3.908-5.99,7.814-7.032,11.07H42.85c-1.043-2.605-3.061-6.968-7.099-11.07c-8.204-8.139-8.204-20.251,0-28.846
	C39.659,20.1,44.804,17.886,50.272,17.886 M50.272,15.281c-6.186,0-12.046,2.54-16.41,7.163c-9.181,9.637-9.181,23.246,0.066,32.492
	c4.167,4.167,6.187,8.53,6.968,11.785h18.687v0.131c0.849-3.256,2.802-7.683,6.968-11.851c9.246-9.247,9.312-22.921,0.066-32.558
	C62.319,17.886,56.394,15.281,50.272,15.281L50.272,15.281z"/>
<path fill="#FFFFFF" d="M57.76,43.801c-0.259-0.26-0.65-0.26-0.91,0l-6.708,6.643l-6.771-6.772c-0.261-0.261-0.651-0.261-0.912,0
	c-0.26,0.26-0.26,0.65-0.065,0.911l7.033,7.033v9.181c0,0.391,0.261,0.651,0.651,0.651c0.392,0,0.651-0.261,0.651-0.651v-9.181
	l6.967-6.968C57.957,44.453,58.021,43.997,57.76,43.801z"/>
</svg>
