<?xml version="1.0" encoding="utf-8"?>
<!-- Generator: Adobe Illustrator 16.0.0, SVG Export Plug-In . SVG Version: 6.00 Build 0)  -->
<!DOCTYPE svg PUBLIC "-//W3C//DTD SVG 1.1//EN" "http://www.w3.org/Graphics/SVG/1.1/DTD/svg11.dtd">
<svg version="1.1" id="Layer_1" xmlns="http://www.w3.org/2000/svg" xmlns:xlink="http://www.w3.org/1999/xlink" x="0px" y="0px"
	 width="50px" height="50px" viewBox="0 0 50 50" enable-background="new 0 0 50 50" xml:space="preserve">
<circle fill="none" stroke="#FFFFFF" stroke-width="3" stroke-miterlimit="10" cx="25" cy="25" r="23.562"/>
<g id="Page-1">
	<g id="Google-_x2B_">
		<path id="Oval-1" d="M-52-8.25c-13.807,0-25,11.193-25,25c0,13.807,11.193,25,25,25s25-11.193,25-25
			C-27,2.943-38.193-8.25-52-8.25z M-52-5.25c-12.15,0-22,9.85-22,22c0,12.15,9.85,22,22,22s22-9.85,22-22
			C-30,4.6-39.85-5.25-52-5.25z M-38.755,13.86v5.279h-2.241V13.86h-5.23v-2.197h5.23V6.431h2.241v5.232h3.993
			c0.294,0.712,0.549,1.446,0.762,2.197H-38.755z M-65.274,29.025c2.914-1.783,6.839-2.021,8.962-2.154
			c-0.658-0.841-1.416-1.732-1.416-3.197c0-0.791,0.236-1.262,0.473-1.816c-0.523,0.05-1.028,0.101-1.5,0.101
			c-4.969,0-7.781-3.702-7.781-7.354c0-2.154,0.993-4.547,2.998-6.279c2.678-2.199,5.861-2.575,8.389-2.575h9.651l-2.998,1.685
			h-2.897c1.078,0.89,3.318,2.763,3.318,6.328c0,3.466-1.971,5.099-3.925,6.648c-0.623,0.605-1.313,1.262-1.313,2.288
			c0,1.026,0.69,1.599,1.213,2.02l1.684,1.312c2.072,1.717,3.941,3.315,3.941,6.546c0,2.131-0.994,4.27-2.934,5.911
			c-1.044,0.17-2.114,0.26-3.205,0.263c1.969-0.863,2.989-2.441,2.989-4.339c0-2.39-1.532-3.651-5.104-6.193
			c-0.37-0.032-0.605-0.032-1.077-0.032c-0.421,0-2.948,0.084-4.919,0.739c-1.027,0.37-4.025,1.498-4.025,4.83
			c0,0.362,0.038,0.713,0.113,1.052c-4.938-3.66-2.799-3.145-3.361-3.145C-67.438,30.718-66.566,29.789-65.274,29.025z
			 M-58.099,7.295c-1.213,0-2.526,0.609-3.284,1.546c-0.793,0.983-1.027,2.245-1.027,3.457c0,3.147,1.818,8.347,5.861,8.347
			c1.162,0,2.426-0.572,3.184-1.312c1.078-1.076,1.162-2.574,1.162-3.416C-52.203,12.534-54.207,7.295-58.099,7.295z"/>
	</g>
</g>
<g>
	<path fill="#FFFFFF" d="M13.783,19.729h9.111v1.296h-7.688v4.304h6.878v1.296h-6.878v4.412h7.778v1.296h-9.201V19.729z"/>
	<path fill="#FFFFFF" d="M25.843,19.729h1.333l7.94,10.101V19.729h1.386v12.604h-1.134l-8.139-10.335v10.335h-1.387V19.729z"/>
</g>
</svg>
