<?xml version="1.0" encoding="utf-8"?>
<!-- Generator: Adobe Illustrator 16.0.0, SVG Export Plug-In . SVG Version: 6.00 Build 0)  -->
<!DOCTYPE svg PUBLIC "-//W3C//DTD SVG 1.1//EN" "http://www.w3.org/Graphics/SVG/1.1/DTD/svg11.dtd">
<svg version="1.1" id="Layer_1" xmlns="http://www.w3.org/2000/svg" xmlns:xlink="http://www.w3.org/1999/xlink" x="0px" y="0px"
	 width="50px" height="50px" viewBox="0 0 50 50" enable-background="new 0 0 50 50" xml:space="preserve">
<g>
	<g>
		<path d="M29.174,26.817c0.437,0,0.798,0.216,1.113,0.643c0.311,0.43,0.478,0.954,0.478,1.582c0,0.627-0.167,1.156-0.478,1.582
			c-0.313,0.429-0.677,0.642-1.113,0.642c-0.451,0-0.848-0.213-1.16-0.642c-0.314-0.426-0.479-0.955-0.479-1.582
			c0-0.628,0.165-1.152,0.479-1.582C28.324,27.031,28.721,26.817,29.174,26.817 M34.758,21.039c1.212,1.316,1.827,2.915,1.827,4.795
			c0,1.214-0.141,2.31-0.42,3.283c-0.285,0.971-0.64,1.761-1.062,2.369c-0.428,0.612-0.955,1.144-1.581,1.605
			c-0.628,0.465-1.203,0.8-1.729,1.012c-0.528,0.214-1.128,0.379-1.803,0.496c-0.679,0.115-1.18,0.182-1.531,0.2
			c-0.346,0.017-0.711,0.021-1.113,0.021c-0.089,0-0.395,0.009-0.887,0.026c-0.49,0.021-0.909,0.025-1.238,0.025
			c-0.328,0-0.749-0.004-1.237-0.025c-0.493-0.018-0.798-0.026-0.888-0.026c-0.4,0-0.766-0.005-1.112-0.021
			c-0.354-0.019-0.854-0.085-1.531-0.2c-0.687-0.117-1.276-0.282-1.803-0.496c-0.527-0.212-1.104-0.547-1.728-1.012
			c-0.629-0.462-1.155-0.993-1.583-1.605c-0.424-0.608-0.777-1.398-1.062-2.369c-0.28-0.974-0.42-2.069-0.42-3.283
			c0-1.88,0.615-3.48,1.826-4.795c-0.133-0.067-0.138-0.727-0.012-1.976c0.102-1.252,0.369-2.407,0.803-3.462
			c1.517,0.161,3.394,1.021,5.636,2.567c0.756-0.193,1.788-0.297,3.112-0.297c1.384,0,2.422,0.104,3.114,0.299
			c1.021-0.69,1.998-1.252,2.93-1.679c0.948-0.424,1.634-0.675,2.062-0.741l0.644-0.147c0.438,1.054,0.704,2.208,0.804,3.462
			C34.896,20.312,34.892,20.972,34.758,21.039 M25.269,33.734c2.74,0,4.797-0.326,6.204-0.985c1.389-0.653,2.096-2.008,2.096-4.053
			c0-1.185-0.441-2.175-1.334-2.968c-0.451-0.426-0.995-0.689-1.605-0.788c-0.607-0.099-1.541-0.099-2.793,0
			c-1.248,0.101-2.106,0.146-2.567,0.146c-0.625,0-1.299-0.029-2.142-0.096c-0.844-0.065-1.506-0.106-1.986-0.127
			c-0.477-0.016-0.989,0.043-1.555,0.175c-0.56,0.134-1.021,0.364-1.385,0.689c-0.846,0.762-1.282,1.749-1.282,2.968
			c0,2.045,0.691,3.399,2.078,4.053c1.38,0.659,3.431,0.985,6.173,0.985H25.269 M21.317,26.817c0.435,0,0.798,0.216,1.111,0.643
			c0.312,0.43,0.478,0.954,0.478,1.582c0,0.627-0.166,1.156-0.478,1.582c-0.312,0.429-0.677,0.642-1.111,0.642
			c-0.453,0-0.848-0.213-1.164-0.642c-0.311-0.426-0.477-0.955-0.477-1.582c0-0.628,0.166-1.152,0.477-1.582
			C20.468,27.031,20.862,26.817,21.317,26.817"/>
	</g>
</g>
<circle cx="25" cy="25" r="25"/>
</svg>
